# xmcd CD database file
#
# Track frame offsets:
#	150
#	27165
#	53942
#	83982
#	109737
#	133887
#	160732
#	199137
#	223590
#	250137
#	278040
#	321015
#
# Disc length: 4370 seconds
#
# Revision: 1
# Processed by: cddbd v1.5PL3 Copyright (c) Steve Scherf et al.
# Submitted via: CDex 1.51
#
DISCID=aa11100c
DTITLE=六翼天使 - 平等精霊
DYEAR=2002
DGENRE=Metal
TTITLE0=沈
TTITLE1=思世間
TTITLE2=曙光的驕傲
TTITLE3=死之歌
TTITLE4=我心已死生
TTITLE5=幻滅?破滅?
TTITLE6=最終的回憶
TTITLE7=驪歌
TTITLE8=占據
TTITLE9=遠離
TTITLE10=平等精霊
TTITLE11=終曲
EXTD=YEAR: 2002
EXTT0=
EXTT1=
EXTT2=
EXTT3=
EXTT4=
EXTT5=
EXTT6=
EXTT7=
EXTT8=
EXTT9=
EXTT10=
EXTT11=
PLAYORDER=
